{
  "accessors": [
    {
      "bufferView": 2,
      "componentType": 5126,
      "count": 3551,
      "max": [
        107.45770263671875,
        136.03219604492188,
        17.731000900268555
      ],
      "min": [
        -35.83620071411133,
        -111.90480041503906,
        -17.731000900268555
      ],
      "type": "VEC3"
    },
    {
      "bufferView": 2,
      "byteOffset": 42612,
      "componentType": 5126,
      "count": 3551,
      "max": [
        1.0,
        1.0,
        1.0
      ],
      "min": [
        -1.0,
        -1.0,
        -1.0
      ],
      "type": "VEC3"
    },
    {
      "bufferView": 3,
      "componentType": 5126,
      "count": 3551,
      "max": [
        1.0,
        1.0,
        1.0,
        1.0
      ],
      "min": [
        -1.0,
        -1.0,
        -1.0,
        -1.0
      ],
      "type": "VEC4"
    },
    {
      "bufferView": 1,
      "componentType": 5126,
      "count": 3551,
      "max": [
        0.9969000220298767,
        0.9961000084877014
      ],
      "min": [
        0.002899999963119626,
        0.006399999838322401
      ],
      "type": "VEC2"
    },
    {
      "bufferView": 0,
      "componentType": 5125,
      "count": 9609,
      "type": "SCALAR"
    },
    {
      "bufferView": 2,
      "byteOffset": 85224,
      "componentType": 5126,
      "count": 2563,
      "max": [
        87.15049743652344,
        134.8979034423828,
        19.138099670410156
      ],
      "min": [
        -25.698699951171875,
        -71.11519622802734,
        -19.030000686645508
      ],
      "type": "VEC3"
    },
    {
      "bufferView": 2,
      "byteOffset": 115980,
      "componentType": 5126,
      "count": 2563,
      "max": [
        1.0,
        1.0,
        1.0
      ],
      "min": [
        -1.0,
        -1.0,
        -1.0
      ],
      "type": "VEC3"
    },
    {
      "bufferView": 3,
      "byteOffset": 56816,
      "componentType": 5126,
      "count": 2563,
      "max": [
        1.0,
        1.0,
        1.0,
        1.0
      ],
      "min": [
        -1.0,
        -1.0,
        -1.0,
        -1.0
      ],
      "type": "VEC4"
    },
    {
      "bufferView": 1,
      "byteOffset": 28408,
      "componentType": 5126,
      "count": 2563,
      "max": [
        0.996399998664856,
        0.9951000213623047
      ],
      "min": [
        0.06480000168085098,
        0.006399999838322401
      ],
      "type": "VEC2"
    },
    {
      "bufferView": 0,
      "byteOffset": 38436,
      "componentType": 5125,
      "count": 9114,
      "type": "SCALAR"
    },
    {
      "bufferView": 2,
      "byteOffset": 146736,
      "componentType": 5126,
      "count": 1687,
      "max": [
        107.11589813232422,
        136.20970153808594,
        17.731000900268555
      ],
      "min": [
        -35.83620071411133,
        -111.47350311279297,
        -17.731000900268555
      ],
      "type": "VEC3"
    },
    {
      "bufferView": 2,
      "byteOffset": 166980,
      "componentType": 5126,
      "count": 1687,
      "max": [
        1.0,
        0.9999998807907104,
        1.0
      ],
      "min": [
        -1.0,
        -1.0,
        -1.0
      ],
      "type": "VEC3"
    },
    {
      "bufferView": 3,
      "byteOffset": 97824,
      "componentType": 5126,
      "count": 1687,
      "max": [
        1.0,
        1.0,
        1.0,
        1.0
      ],
      "min": [
        -1.0,
        -1.0,
        -1.0,
        -1.0
      ],
      "type": "VEC4"
    },
    {
      "bufferView": 1,
      "byteOffset": 48912,
      "componentType": 5126,
      "count": 1687,
      "max": [
        0.9387999773025513,
        0.9959999918937683
      ],
      "min": [
        0.002899999963119626,
        0.006800000090152025
      ],
      "type": "VEC2"
    },
    {
      "bufferView": 0,
      "byteOffset": 74892,
      "componentType": 5125,
      "count": 7449,
      "type": "SCALAR"
    },
    {
      "bufferView": 2,
      "byteOffset": 187224,
      "componentType": 5126,
      "count": 1060,
      "max": [
        107.60820007324219,
        43.44879913330078,
        8.477499961853027
      ],
      "min": [
        -19.608699798583984,
        -112.09210205078125,
        -8.452899932861328
      ],
      "type": "VEC3"
    },
    {
      "bufferView": 2,
      "byteOffset": 199944,
      "componentType": 5126,
      "count": 1060,
      "max": [
        1.0,
        0.9996899962425232,
        1.0
      ],
      "min": [
        -1.0,
        -0.9991007447242737,
        -1.0
      ],
      "type": "VEC3"
    },
    {
      "bufferView": 3,
      "byteOffset": 124816,
      "componentType": 5126,
      "count": 1060,
      "max": [
        1.0,
        0.9999711513519287,
        1.0,
        1.0
      ],
      "min": [
        -1.0,
        -0.9998154640197754,
        -1.0,
        -1.0
      ],
      "type": "VEC4"
    },
    {
      "bufferView": 1,
      "byteOffset": 62408,
      "componentType": 5126,
      "count": 1060,
      "max": [
        0.8064000010490417,
        0.6148999929428101
      ],
      "min": [
        0.002400000113993883,
        0.2669000029563904
      ],
      "type": "VEC2"
    },
    {
      "bufferView": 0,
      "byteOffset": 104688,
      "componentType": 5125,
      "count": 4728,
      "type": "SCALAR"
    },
    {
      "bufferView": 2,
      "byteOffset": 212664,
      "componentType": 5126,
      "count": 308,
      "max": [
        2.549099922180176,
        71.39320373535156,
        2.7697999477386475
      ],
      "min": [
        -3.016700029373169,
        19.528900146484375,
        -2.796099901199341
      ],
      "type": "VEC3"
    },
    {
      "bufferView": 2,
      "byteOffset": 216360,
      "componentType": 5126,
      "count": 308,
      "max": [
        1.0,
        1.0,
        1.0
      ],
      "min": [
        -1.0,
        -1.0,
        -1.0
      ],
      "type": "VEC3"
    },
    {
      "bufferView": 3,
      "byteOffset": 141776,
      "componentType": 5126,
      "count": 308,
      "max": [
        0.9999670386314392,
        0.9521984457969666,
        0.9999986886978149,
        1.0
      ],
      "min": [
        -0.9998146891593933,
        -1.0,
        -0.998295783996582,
        1.0
      ],
      "type": "VEC4"
    },
    {
      "bufferView": 1,
      "byteOffset": 70888,
      "componentType": 5126,
      "count": 308,
      "max": [
        0.9965000152587891,
        0.25290000438690186
      ],
      "min": [
        0.848800003528595,
        0.14659999310970306
      ],
      "type": "VEC2"
    },
    {
      "bufferView": 0,
      "byteOffset": 123600,
      "componentType": 5125,
      "count": 1200,
      "type": "SCALAR"
    }
  ],
  "asset": {
    "extras": {
      "author": "David Boese (https://sketchfab.com/imsumdave)",
      "license": "CC-BY-NC-4.0 (http://creativecommons.org/licenses/by-nc/4.0/)",
      "source": "https://sketchfab.com/3d-models/38-special-revolver-3246c31648204534a2c6d671fe38452e",
      "title": ".38 Special Revolver"
    },
    "generator": "Sketchfab-13.37.1",
    "version": "2.0"
  },
  "bufferViews": [
    {
      "buffer": 0,
      "byteLength": 128400,
      "name": "floatBufferViews",
      "target": 34963
    },
    {
      "buffer": 0,
      "byteLength": 73352,
      "byteOffset": 128400,
      "byteStride": 8,
      "name": "floatBufferViews",
      "target": 34962
    },
    {
      "buffer": 0,
      "byteLength": 220056,
      "byteOffset": 201752,
      "byteStride": 12,
      "name": "floatBufferViews",
      "target": 34962
    },
    {
      "buffer": 0,
      "byteLength": 146704,
      "byteOffset": 421808,
      "byteStride": 16,
      "name": "floatBufferViews",
      "target": 34962
    }
  ],
  "buffers": [
    {
      "byteLength": 568512,
      "uri": "scene.bin"
    }
  ],
  "images": [
    {
      "uri": "textures/18___Default_baseColor.png"
    },
    {
      "uri": "textures/18___Default_metallicRoughness.png"
    },
    {
      "uri": "textures/18___Default_normal.png"
    },
    {
      "uri": "textures/Material__0_metallicRoughness.png"
    }
  ],
  "materials": [
    {
      "doubleSided": true,
      "name": "18___Default",
      "normalTexture": {
        "index": 2
      },
      "occlusionTexture": {
        "index": 1
      },
      "pbrMetallicRoughness": {
        "baseColorTexture": {
          "index": 0
        },
        "metallicRoughnessTexture": {
          "index": 1
        }
      }
    },
    {
      "doubleSided": true,
      "name": "Material__0",
      "normalTexture": {
        "index": 2
      },
      "pbrMetallicRoughness": {
        "baseColorTexture": {
          "index": 0
        },
        "metallicRoughnessTexture": {
          "index": 3
        }
      }
    }
  ],
  "meshes": [
    {
      "name": "Object_0",
      "primitives": [
        {
          "attributes": {
            "NORMAL": 1,
            "POSITION": 0,
            "TANGENT": 2,
            "TEXCOORD_0": 3
          },
          "indices": 4,
          "material": 0,
          "mode": 4
        }
      ]
    },
    {
      "name": "Object_1",
      "primitives": [
        {
          "attributes": {
            "NORMAL": 6,
            "POSITION": 5,
            "TANGENT": 7,
            "TEXCOORD_0": 8
          },
          "indices": 9,
          "material": 0,
          "mode": 4
        }
      ]
    },
    {
      "name": "Object_2",
      "primitives": [
        {
          "attributes": {
            "NORMAL": 11,
            "POSITION": 10,
            "TANGENT": 12,
            "TEXCOORD_0": 13
          },
          "indices": 14,
          "material": 0,
          "mode": 4
        }
      ]
    },
    {
      "name": "Object_3",
      "primitives": [
        {
          "attributes": {
            "NORMAL": 16,
            "POSITION": 15,
            "TANGENT": 17,
            "TEXCOORD_0": 18
          },
          "indices": 19,
          "material": 0,
          "mode": 4
        }
      ]
    },
    {
      "name": "Object_4",
      "primitives": [
        {
          "attributes": {
            "NORMAL": 21,
            "POSITION": 20,
            "TANGENT": 22,
            "TEXCOORD_0": 23
          },
          "indices": 24,
          "material": 1,
          "mode": 4
        }
      ]
    }
  ],
  "nodes": [
    {
      "children": [
        1
      ],
      "matrix": [
        0.0,
        -1.0,
        -2.220446049250313e-16,
        0.0,
        0.0,
        2.220446049250313e-16,
        -1.0,
        0.0,
        1.0,
        0.0,
        0.0,
        0.0,
        0.0,
        0.0,
        0.0,
        1.0
      ],
      "name": "Sketchfab_model"
    },
    {
      "children": [
        2,
        3,
        4,
        5,
        6
      ],
      "name": "1535e3b981724742b5f5287894e8abf4.obj.cleaner"
    },
    {
      "mesh": 0,
      "name": "Object_2"
    },
    {
      "mesh": 1,
      "name": "Object_3"
    },
    {
      "mesh": 2,
      "name": "Object_4"
    },
    {
      "mesh": 3,
      "name": "Object_5"
    },
    {
      "mesh": 4,
      "name": "Object_6"
    }
  ],
  "samplers": [
    {
      "magFilter": 9729,
      "minFilter": 9987,
      "wrapS": 10497,
      "wrapT": 10497
    }
  ],
  "scene": 0,
  "scenes": [
    {
      "name": "Sketchfab_Scene",
      "nodes": [
        0
      ]
    }
  ],
  "textures": [
    {
      "sampler": 0,
      "source": 0
    },
    {
      "sampler": 0,
      "source": 1
    },
    {
      "sampler": 0,
      "source": 2
    },
    {
      "sampler": 0,
      "source": 3
    }
  ]
}
